# xmcd
#
# Track frame offsets:
#	150
#	17408
#	30292
#	45496
#	60438
#	80398
#	94967
#	106971
#	121999
#	137095
#	149839
#	165190
#	177887
#
# Disc length: 2579 seconds
# Revision: 0
# Processed by: cddbd v1.5.2PL0 Copyright (c) Steve Scherf et al.
# Submitted via: dBpowerAMP V12.0
#
DISCID=9c0a110d
DTITLE=Old Crow Medicine Show - Remedy
DYEAR=2014
DGENRE=Country
TTITLE0=Brushy Mountain Conjugal Trailer
TTITLE1=8 Dogs 8 Banjos
TTITLE2=Sweet Amarillo
TTITLE3=Mean Enough World
TTITLE4=Dearly Departed Friend
TTITLE5=Firewater
TTITLE6=Brave Boys
TTITLE7=Doc's Day
TTITLE8=O Cumberland River
TTITLE9=Tennessee Bound
TTITLE10=FCC - Shit Creek
TTITLE11=Sweet Home
TTITLE12=The Warden
EXTD=
EXTT0=
EXTT1=
EXTT2=
EXTT3=
EXTT4=
EXTT5=
EXTT6=
EXTT7=
EXTT8=
EXTT9=
EXTT10=
EXTT11=
EXTT12=
PLAYORDER=
